{"title":"UFC.Fight.Night.38.Shogun.vs.Henderson.MAIN.EVENT.720p.x264-Clin","uid":9817031,"size":3052484560,"categoryP":"video","categoryS":"hd___tv_shows","magnet":"?xt=urn:btih:5a98ca52ca5b6050bd541f775bdfba15b36ed798&amp;dn=UFC.Fight.Night.38.Shogun.vs.Henderson.MAIN.EVENT.720p.x264-Clin&amp;tr=udp%3A%2F%2Ftracker.openbittorrent.com%3A80&amp;tr=udp%3A%2F%2Fopen.demonii.com%3A1337&amp;tr=udp%3A%2F%2Ftracker.coppersurfer.tk%3A6969&amp;tr=udp%3A%2F%2Fexodus.desync.com%3A6969","seeders":1,"leechers":0,"uploader":"PlumpRoundAss","files":-1,"time":1395631104,"description":"*Main Event Only.\n\nFile size                                : 2.84 GiB\nDuration                                 : 28mn 58s\nOverall bit rate mode                    : Variable\nOverall bit rate                         : 14.0 Mbps\nMaximum Overall bit rate                 : 18.0 Mbps\n\nVideo\nID                                       : 4113 (0x1011)\nMenu ID                                  : 1 (0x1)\nFormat                                   : AVC\nFormat/Info                              : Advanced Video Codec\nFormat profile                           : &lt;a class=&quot;__cf_email__&quot; href=&quot;/cdn-cgi/l/email-protection&quot; data-cfemail=&quot;185579717658542c3628&quot;&gt;[email&amp;#160;protected]&lt;/a&gt;&lt;script cf-hash='f9e31' type=&quot;text/javascript&quot;&gt;\n/* &lt;![CDATA[ */!function(){try{var t=&quot;currentScript&quot;in document?document.currentScript:function(){for(var t=document.getElementsByTagName(&quot;script&quot;),e=t.length;e--;)if(t[e].getAttribute(&quot;cf-hash&quot;))return t[e]}();if(t&amp;&amp;t.previousSibling){var e,r,n,i,c=t.previousSibling,a=c.getAttribute(&quot;data-cfemail&quot;);if(a){for(e=&quot;&quot;,r=parseInt(a.substr(0,2),16),n=2;a.length-n;n+=2)i=parseInt(a.substr(n,2),16)^r,e+=String.fromCharCode(i);e=document.createTextNode(e),c.parentNode.replaceChild(e,c)}}}catch(u){}}();/* ]]&gt; */&lt;/script&gt;\nFormat settings, CABAC                   : Yes\nFormat settings, ReFrames                : 4 frames\nFormat settings, GOP                     : M=4, N=32\nCodec ID                                 : 27\nDuration                                 : 28mn 58s\nBit rate mode                            : Variable\nBit rate                                 : 13.2 Mbps\nMaximum bit rate                         : 20.0 Mbps\nWidth                                    : 1 280 pixels\nHeight                                   : 720 pixels\nDisplay aspect ratio                     : 16:9\nFrame rate                               : 59.940 fps\nColor space                              : YUV\nChroma subsampling                       : 4:2:0\nBit depth                                : 8 bits\nScan type                                : Progressive\nBits/(Pixel*Frame)                       : 0.239\nStream size                              : 2.68 GiB (94%)\nColor primaries                          : BT.709\nTransfer characteristics                 : BT.709\nMatrix coefficients                      : BT.709\n\nAudio\nID                                       : 4352 (0x1100)\nMenu ID                                  : 1 (0x1)\nFormat                                   : AAC\nFormat/Info                              : Advanced Audio Codec\nFormat version                           : Version 2\nFormat profile                           : LC\nMuxing mode                              : ADTS\nCodec ID                                 : 15\nDuration                                 : 28mn 58s\nBit rate mode                            : Variable\nBit rate                                 : 128 Kbps\nChannel(s)                               : 2 channels\nChannel positions                        : Front: L R\nSampling rate                            : 48.0 KHz\nCompression mode                         : Lossy\nDelay relative to video                  : -4ms\nStream size                              : 26.6 MiB (1%)\n\n","torrent":{"xt":"urn:btih:5a98ca52ca5b6050bd541f775bdfba15b36ed798","amp;dn":"UFC.Fight.Night.38.Shogun.vs.Henderson.MAIN.EVENT.720p.x264-Clin","amp;tr":["udp%3A%2F%2Ftracker.openbittorrent.com%3A80","udp%3A%2F%2Fopen.demonii.com%3A1337","udp%3A%2F%2Ftracker.coppersurfer.tk%3A6969","udp%3A%2F%2Fexodus.desync.com%3A6969"],"infoHash":"5a98ca52ca5b6050bd541f775bdfba15b36ed798","infoHashBuffer":{"type":"Buffer","data":[90,152,202,82,202,91,96,80,189,84,31,119,91,223,186,21,179,110,215,152]},"announce":[],"urlList":[]}}